<svg xmlns="http://www.w3.org/2000/svg" viewBox="0 0 520 360" role="img" aria-labelledby="title desc">
  <title id="title">AURA streaming video understanding</title>
  <desc id="desc">AURA turns an unbounded video stream into context-aware answers and proactive assistance.</desc>
  <rect width="520" height="360" rx="18" fill="#f7eee9"/>
  <g font-family="Arial, sans-serif" text-anchor="middle">
    <rect x="35" y="124" width="108" height="82" rx="12" fill="#fff" stroke="#ba6b4d" stroke-width="3"/>
    <circle cx="69" cy="165" r="20" fill="#f3d6c9" stroke="#ba6b4d" stroke-width="3"/>
    <path d="M53 180l16-16 13 10 11-14 14 20" fill="none" stroke="#ba6b4d" stroke-width="3"/>
    <text x="89" y="229" font-size="15" fill="#403a33">video stream</text>
    <rect x="205" y="91" width="112" height="148" rx="14" fill="#fff" stroke="#ba6b4d" stroke-width="3"/>
    <text x="261" y="123" font-size="16" fill="#403a33">AURA</text>
    <rect x="228" y="143" width="66" height="18" rx="5" fill="#f3d6c9"/><text x="261" y="156" font-size="10" fill="#403a33">KV cache</text>
    <rect x="228" y="170" width="66" height="18" rx="5" fill="#e8b69f"/><text x="261" y="183" font-size="10" fill="#403a33">sparsity</text>
    <rect x="228" y="197" width="66" height="18" rx="5" fill="#d89a7c"/><text x="261" y="210" font-size="10" fill="#fff">scheduler</text>
    <rect x="380" y="113" width="104" height="104" rx="12" fill="#fff" stroke="#ba6b4d" stroke-width="3"/>
    <path d="M404 153h55M404 169h55M404 185h36" stroke="#ba6b4d" stroke-width="4" stroke-linecap="round"/>
    <text x="432" y="239" font-size="15" fill="#403a33">assistance</text>
  </g>
  <g stroke="#ba6b4d" stroke-width="4" fill="none" stroke-linecap="round" stroke-linejoin="round">
    <path d="M145 165h50"/><path d="m183 154 12 11-12 11"/>
    <path d="M319 165h50"/><path d="m357 154 12 11-12 11"/>
    <path d="M458 95c22-25 15-52-18-59"/><path d="m434 34 7 2-1 8"/>
  </g>
  <text x="260" y="318" font-family="Arial, sans-serif" text-anchor="middle" font-size="15" fill="#857c72">continuous context · real-time interaction</text>
</svg>
